<?xml version="1.0" standalone="no"?>
<!DOCTYPE svg PUBLIC "-//W3C//DTD SVG 20010904//EN"
 "http://www.w3.org/TR/2001/REC-SVG-20010904/DTD/svg10.dtd">
<svg version="1.0" xmlns="http://www.w3.org/2000/svg"
 width="2000.000000pt" height="2000.000000pt" viewBox="0 0 2000.000000 2000.000000"
 preserveAspectRatio="xMidYMid meet">

<g transform="translate(0.000000,2000.000000) scale(0.100000,-0.100000)"
fill="#000000" stroke="none">
<path d="M9621 17090 c-13 -11 -62 -42 -110 -69 -47 -26 -123 -73 -168 -102
-45 -30 -139 -88 -208 -129 -69 -41 -165 -102 -213 -136 -48 -34 -105 -71
-127 -83 -22 -12 -85 -51 -140 -86 -55 -35 -156 -98 -225 -140 -69 -42 -165
-103 -215 -135 -49 -33 -110 -71 -135 -86 -25 -15 -99 -62 -165 -104 -66 -43
-219 -138 -340 -212 -316 -195 -438 -271 -542 -341 -51 -34 -122 -80 -158
-102 -36 -22 -122 -76 -190 -120 -69 -44 -156 -98 -193 -119 -37 -22 -130 -81
-207 -131 -77 -51 -159 -102 -182 -114 -23 -11 -86 -49 -140 -84 -54 -35 -145
-92 -203 -127 -58 -35 -148 -91 -200 -125 -52 -34 -133 -86 -180 -115 -47 -29
-146 -92 -220 -140 -297 -191 -605 -385 -690 -436 -60 -36 -101 -61 -185 -116
-38 -25 -162 -103 -275 -173 -301 -187 -458 -292 -475 -319 -13 -20 -15 -439
-13 -3767 3 -3660 3 -3745 22 -3782 20 -40 26 -45 191 -144 101 -60 303 -185
516 -319 64 -40 138 -85 165 -100 27 -15 96 -57 154 -93 58 -36 152 -93 210
-126 120 -70 503 -304 875 -536 174 -108 326 -200 460 -279 188 -111 314 -187
545 -330 113 -70 234 -144 270 -165 36 -21 86 -53 111 -72 26 -18 50 -33 54
-33 4 0 19 -9 34 -19 15 -11 54 -34 86 -52 33 -18 78 -44 100 -59 22 -15 123
-78 225 -140 102 -62 215 -132 252 -156 37 -24 69 -44 72 -44 3 0 103 -60 253
-154 43 -26 121 -73 173 -103 89 -51 331 -198 410 -248 262 -167 522 -327 800
-492 216 -130 201 -129 406 -5 34 20 129 77 210 126 82 49 193 117 246 150
112 70 288 176 480 290 176 104 303 180 418 252 52 32 145 89 205 126 383 234
377 231 485 298 47 29 114 70 150 90 36 20 99 58 141 86 42 27 124 78 183 114
59 36 212 130 342 210 129 80 267 165 307 189 123 74 366 224 436 268 36 24
140 88 231 144 91 55 201 123 245 151 44 28 127 78 185 111 58 33 130 77 160
97 30 20 87 54 125 75 39 21 111 65 160 98 50 33 142 90 205 127 63 37 186
111 273 166 86 54 192 120 235 145 42 25 137 83 210 128 73 44 135 81 137 81
7 0 139 83 159 99 10 9 27 33 37 53 19 36 19 127 19 3783 0 2448 -3 3753 -10
3765 -10 19 -267 192 -467 316 -62 38 -143 88 -180 112 -38 23 -97 60 -133 82
-36 22 -99 61 -141 87 -42 27 -138 86 -213 133 -76 47 -184 115 -242 152 -57
37 -172 108 -256 159 -84 51 -166 102 -183 115 -16 12 -52 34 -80 49 -27 16
-115 71 -195 123 -80 52 -237 151 -350 220 -113 68 -304 187 -425 264 -248
157 -556 348 -561 348 -5 0 -211 131 -284 181 -36 24 -98 64 -139 89 -40 25
-101 63 -134 85 -65 43 -303 190 -537 331 -80 48 -176 107 -215 132 -102 65
-163 103 -328 205 -217 135 -237 147 -297 180 -30 16 -95 58 -145 92 -100 69
-216 140 -285 175 -25 13 -95 56 -156 96 -215 140 -261 157 -313 114z m165
-1147 c32 -22 99 -63 147 -92 49 -28 128 -78 175 -110 48 -32 173 -110 277
-173 105 -63 219 -134 255 -157 116 -75 269 -170 438 -272 90 -55 210 -131
266 -169 55 -38 138 -90 183 -117 122 -72 420 -250 488 -293 209 -130 456
-286 492 -311 23 -16 43 -29 46 -29 3 0 72 -42 153 -94 82 -52 203 -128 269
-168 66 -39 140 -85 164 -101 24 -17 103 -65 175 -108 72 -43 172 -106 221
-140 50 -34 115 -75 145 -92 30 -16 96 -56 145 -87 50 -32 115 -73 146 -91 62
-38 128 -79 293 -186 61 -40 133 -84 160 -99 49 -26 90 -51 241 -149 44 -29
117 -74 163 -101 46 -27 99 -63 118 -80 l34 -32 0 -3222 0 -3223 -34 -32 c-19
-18 -50 -41 -69 -51 -37 -21 -116 -69 -348 -211 -83 -51 -153 -93 -156 -93 -3
0 -74 -44 -159 -97 -85 -54 -167 -105 -182 -113 -27 -15 -86 -52 -245 -154
-48 -31 -143 -88 -210 -126 -67 -39 -160 -95 -207 -126 -47 -30 -128 -80 -180
-111 -52 -31 -142 -88 -199 -125 -57 -38 -125 -80 -151 -93 -27 -14 -115 -66
-197 -116 -81 -51 -197 -122 -258 -158 -60 -37 -132 -82 -160 -100 -115 -75
-219 -140 -375 -232 -91 -53 -199 -119 -240 -146 -147 -95 -582 -364 -620
-383 -14 -7 -75 -46 -136 -86 -62 -40 -127 -80 -145 -89 -19 -10 -103 -61
-187 -114 -84 -53 -185 -116 -225 -140 -39 -24 -103 -64 -142 -89 -160 -105
-323 -206 -367 -228 -68 -34 -96 -31 -174 21 -37 25 -92 59 -123 77 -57 31
-277 162 -341 203 -19 12 -69 41 -110 65 -41 24 -115 71 -165 105 -49 33 -135
87 -190 119 -55 33 -158 96 -230 141 -71 45 -159 99 -195 120 -36 22 -94 58
-130 81 -36 23 -103 63 -150 90 -47 26 -136 81 -198 121 -62 40 -132 83 -155
94 -52 26 -198 116 -292 179 -38 26 -86 55 -105 65 -19 10 -87 52 -150 95
-124 83 -229 148 -325 199 -33 18 -67 38 -75 45 -8 7 -49 32 -90 56 -41 24
-131 80 -200 124 -69 44 -174 108 -235 143 -60 34 -144 83 -185 110 -41 26
-114 71 -162 98 -81 46 -131 77 -437 266 -63 38 -158 98 -210 133 -53 34 -141
89 -196 121 -227 132 -469 280 -496 302 l-28 24 0 3221 c0 1771 3 3226 6 3233
11 30 158 132 443 308 85 53 229 143 320 201 329 209 418 265 595 376 99 62
230 145 290 185 61 39 139 89 175 110 74 43 156 94 280 174 47 30 117 72 155
93 39 21 95 57 125 78 30 22 98 65 150 97 52 31 149 91 215 133 368 236 593
379 615 390 14 7 70 43 125 79 55 37 145 93 200 126 91 53 278 171 504 316 48
31 152 96 232 144 79 49 169 105 201 124 31 20 125 79 210 130 84 52 200 128
258 168 96 67 109 73 146 70 27 -3 62 -18 100 -44z"/>
<path d="M9976 14839 c-3 -17 -3 -36 0 -41 4 -6 6 -135 5 -287 -10 -2653 -10
-2928 2 -2945 11 -16 15 -15 67 2 30 10 87 41 125 69 39 27 105 71 147 97 42
25 133 83 202 128 69 46 151 98 184 116 94 54 155 104 164 137 5 17 9 210 9
430 1 220 4 447 8 505 l6 105 37 -1 c24 -1 49 -11 75 -31 21 -17 121 -81 222
-143 102 -62 205 -126 231 -144 25 -17 94 -60 153 -96 98 -59 321 -197 457
-283 30 -19 108 -69 173 -111 64 -42 120 -76 123 -76 3 0 31 -17 62 -39 31
-21 76 -48 98 -59 42 -22 250 -150 429 -265 55 -36 150 -94 210 -130 61 -37
124 -80 140 -97 l30 -31 3 -562 c3 -628 0 -679 -53 -794 -42 -90 -94 -158
-232 -298 -129 -131 -123 -127 -661 -467 -46 -29 -101 -64 -122 -78 -102 -67
-221 -140 -277 -171 -34 -19 -123 -74 -197 -124 -74 -49 -156 -102 -183 -118
-26 -15 -91 -55 -143 -88 -52 -33 -126 -78 -165 -100 -72 -42 -130 -78 -382
-238 -175 -111 -362 -229 -418 -265 -62 -38 -207 -178 -280 -269 -65 -82 -160
-260 -203 -382 -45 -127 -46 -134 -49 -1890 -2 -918 -4 -1689 -4 -1712 -1 -22
1 -46 5 -51 11 -18 115 31 233 109 206 135 387 246 488 299 39 20 116 65 172
101 56 35 133 82 169 104 37 22 113 70 168 106 56 36 130 83 166 104 36 22
118 73 182 115 65 41 166 103 225 138 60 35 142 85 183 112 41 27 95 60 120
74 25 13 93 55 152 93 110 71 403 254 536 335 42 26 109 67 147 91 39 25 142
89 230 142 203 124 228 140 317 198 113 74 308 196 473 296 83 50 186 117 231
150 l81 60 6 163 c10 261 0 2019 -12 2049 -14 39 -80 104 -291 285 -58 49
-127 105 -153 124 -48 34 -64 63 -53 98 4 11 73 87 154 169 158 161 180 184
230 253 122 168 116 146 122 415 7 344 5 1977 -3 2000 -4 12 -22 29 -39 40
-40 23 -372 234 -588 374 -58 37 -143 90 -189 116 -47 26 -137 80 -200 120
-64 40 -141 87 -171 104 -30 18 -100 62 -156 99 -56 37 -125 83 -155 103 -30
19 -85 53 -124 74 -38 22 -113 67 -165 100 -52 34 -145 91 -205 127 -61 36
-154 94 -207 129 -54 35 -145 93 -203 129 -58 36 -131 82 -163 102 -31 20
-100 63 -152 94 -155 93 -383 235 -514 319 -238 152 -608 383 -722 450 -47 28
-108 67 -135 87 -38 30 -146 78 -172 78 -3 0 -7 -14 -11 -31z m3061 -6071 c77
-56 211 -167 246 -202 20 -22 42 -56 48 -75 6 -24 9 -250 7 -660 l-3 -623 -32
-27 c-17 -14 -67 -46 -110 -70 -43 -25 -114 -68 -158 -96 -44 -29 -136 -87
-205 -130 -184 -115 -279 -175 -335 -210 -27 -18 -76 -48 -108 -66 -33 -19
-78 -45 -100 -58 -23 -13 -99 -61 -168 -107 -69 -45 -146 -92 -170 -104 -24
-12 -84 -50 -134 -84 -49 -34 -112 -75 -140 -90 -27 -16 -157 -96 -287 -180
-131 -83 -265 -167 -297 -186 -33 -20 -71 -46 -84 -58 -27 -26 -83 -44 -109
-36 -13 4 -18 16 -19 42 0 20 -2 297 -4 615 -2 317 -6 581 -8 585 -3 4 -2 116
2 249 9 277 6 270 101 330 33 21 143 91 243 157 100 65 192 122 204 127 12 4
61 34 110 65 48 31 133 84 188 117 150 91 303 186 366 228 31 21 100 63 155
95 54 31 115 69 134 84 19 15 96 64 171 109 75 45 204 126 285 181 82 54 156
99 164 99 9 1 30 -9 47 -21z"/>
<path d="M9094 14718 c-104 -66 -202 -128 -218 -137 -16 -9 -67 -41 -115 -72
-47 -30 -115 -73 -151 -94 -101 -60 -213 -131 -350 -220 -223 -146 -382 -247
-509 -322 -68 -41 -162 -100 -210 -132 -47 -33 -124 -79 -169 -105 -46 -25
-105 -61 -130 -79 -26 -19 -90 -60 -142 -92 -52 -32 -156 -97 -230 -145 -74
-48 -178 -113 -230 -145 -113 -69 -258 -161 -475 -303 -88 -58 -203 -131 -255
-162 -52 -32 -118 -73 -147 -91 -28 -19 -104 -65 -168 -104 -64 -38 -159 -98
-211 -132 -52 -34 -121 -79 -155 -99 -33 -21 -65 -47 -71 -58 -15 -28 -13
-5482 2 -5522 13 -32 19 -38 130 -105 47 -29 108 -66 135 -84 28 -18 79 -50
115 -72 36 -22 141 -88 233 -147 92 -58 174 -106 181 -106 7 0 35 -11 62 -25
27 -14 52 -25 57 -25 4 0 7 488 7 1085 l0 1084 28 27 c27 26 197 140 329 220
38 23 132 81 211 130 192 120 253 153 279 154 18 0 30 -16 63 -85 22 -47 40
-91 40 -99 0 -13 32 -95 51 -129 5 -9 16 -39 25 -65 9 -26 26 -69 39 -97 24
-53 80 -195 111 -280 9 -27 41 -99 70 -160 28 -60 62 -135 74 -165 12 -30 30
-73 40 -95 23 -52 63 -154 105 -268 44 -121 94 -239 131 -307 16 -30 30 -59
32 -65 9 -26 78 -201 117 -295 23 -58 57 -141 75 -185 46 -113 54 -130 94
-219 20 -43 36 -84 36 -90 0 -6 9 -29 19 -51 20 -41 60 -142 101 -250 12 -33
46 -112 75 -175 29 -63 63 -142 75 -175 12 -33 28 -73 35 -90 7 -16 29 -68 48
-115 20 -47 51 -123 71 -170 19 -47 38 -98 42 -115 4 -16 36 -92 71 -168 34
-75 63 -140 63 -143 0 -9 79 -193 103 -242 34 -66 74 -98 317 -247 69 -42 141
-89 160 -103 57 -43 176 -119 197 -126 33 -11 55 16 64 77 4 32 6 272 4 534
-4 516 -6 542 -60 658 -15 33 -42 101 -60 150 -86 235 -109 290 -202 495 -17
36 -45 101 -62 145 -18 44 -48 112 -67 152 -19 40 -34 77 -34 83 0 6 -18 53
-40 105 -22 52 -40 99 -40 104 0 6 -18 52 -41 103 -44 99 -105 251 -145 358
-13 36 -37 92 -54 125 -16 33 -59 134 -95 225 -36 91 -70 174 -75 185 -21 45
-90 213 -90 218 0 4 -16 40 -35 81 -19 41 -35 80 -35 85 0 5 -17 47 -38 93
-21 46 -45 101 -54 123 -9 22 -27 69 -41 105 -40 104 -128 314 -136 325 -4 6
-18 39 -30 75 -23 63 -114 284 -152 366 -10 23 -19 44 -19 47 0 4 -22 53 -50
109 -27 57 -53 117 -56 135 -8 39 9 54 145 138 341 209 650 450 821 639 76 85
171 200 180 220 3 6 27 43 53 83 26 40 64 103 84 140 20 37 53 100 74 139 39
73 91 219 129 359 12 44 26 96 31 115 6 19 18 89 27 155 14 106 17 305 19
1760 1 902 0 1664 -3 1693 -9 89 -16 88 -230 -50z m-673 -1615 c7 -18 9 -308
6 -862 -4 -797 -5 -840 -24 -916 -24 -96 -98 -252 -168 -355 -111 -163 -129
-187 -184 -243 -59 -61 -274 -222 -404 -303 -43 -27 -133 -83 -200 -125 -67
-42 -212 -132 -322 -199 -110 -67 -246 -152 -302 -189 -56 -36 -144 -91 -194
-121 -116 -69 -307 -195 -335 -221 -25 -23 -170 -99 -189 -99 -8 0 -17 5 -20
11 -8 13 -6 2174 2 2195 5 15 168 128 303 211 36 22 103 64 150 93 116 73 480
298 615 380 61 37 158 98 215 137 58 38 134 87 170 108 36 21 110 68 165 105
55 37 165 107 245 155 80 48 175 109 211 136 37 27 70 49 75 49 5 1 34 19 64
40 67 48 106 52 121 13z"/>
<path d="M10995 11540 c-100 -13 -216 -39 -285 -64 -51 -18 -82 -20 -96 -7
-24 24 -85 49 -147 61 -165 33 -342 -58 -422 -216 -28 -56 -30 -65 -30 -181
l0 -121 -46 -64 c-107 -146 -177 -281 -227 -433 -117 -358 -123 -665 -19
-1025 39 -136 133 -340 208 -454 21 -32 39 -61 39 -65 0 -3 -29 -27 -64 -53
-106 -79 -159 -180 -159 -303 1 -173 134 -295 321 -295 114 0 148 19 765 426
170 112 310 204 312 204 2 0 70 44 152 98 156 103 360 237 515 336 51 33 176
114 278 180 270 175 360 233 500 323 565 363 585 377 626 464 39 81 44 99 44
164 0 189 -177 330 -370 294 -73 -13 -134 -39 -198 -82 -24 -16 -45 -27 -46
-25 -2 1 -22 32 -46 68 -91 138 -237 301 -355 397 -189 153 -445 282 -660 332
-49 12 -110 26 -135 32 -60 14 -367 20 -455 9z m430 -60 c402 -71 756 -275
1009 -579 69 -84 156 -210 156 -227 0 -6 -24 -26 -52 -44 -29 -19 -154 -100
-278 -180 -499 -325 -662 -430 -665 -430 -2 0 -23 33 -48 73 -24 39 -111 176
-194 302 -82 127 -230 354 -328 505 -98 151 -211 326 -252 388 -40 62 -73 117
-73 122 0 10 5 11 110 38 65 17 133 29 255 46 49 7 295 -3 360 -14z m-912 -16
c20 -7 57 -27 81 -44 52 -35 53 -38 524 -765 465 -718 433 -664 406 -682 -11
-8 -134 -88 -274 -180 l-255 -166 -27 34 c-15 19 -74 106 -131 194 -57 88
-183 282 -279 430 -96 149 -240 369 -318 490 -161 246 -184 298 -177 393 17
223 239 369 450 296z m-335 -694 c64 -99 191 -295 282 -435 91 -140 236 -364
323 -496 87 -133 156 -243 155 -244 -6 -6 -335 -221 -443 -290 -60 -39 -191
-123 -290 -188 l-180 -118 -18 22 c-18 23 -70 109 -119 199 -54 100 -116 277
-150 435 -19 86 -22 130 -22 320 0 238 12 325 70 501 54 165 227 474 265 474
5 0 62 -81 127 -180z m2869 -25 c57 -24 100 -61 130 -113 23 -39 27 -58 27
-117 -1 -127 -67 -218 -235 -323 -46 -29 -154 -98 -239 -154 -85 -56 -211
-137 -280 -181 -69 -44 -219 -141 -335 -217 -212 -138 -739 -480 -785 -508
-13 -8 -29 -19 -35 -24 -5 -5 -109 -72 -230 -149 -121 -78 -294 -190 -385
-249 -512 -333 -509 -332 -620 -333 -89 0 -152 25 -201 81 -44 50 -59 92 -59
164 0 72 28 142 79 200 17 20 134 103 259 183 125 81 324 210 442 287 118 77
332 216 475 308 143 93 370 240 505 328 135 87 369 239 520 337 151 98 363
235 470 305 202 132 238 153 299 175 50 19 154 18 198 0z"/>
</g>
</svg>
